<svg xmlns="http://www.w3.org/2000/svg" width="42.875" height="42.75"><g fill-rule="evenodd" clip-rule="evenodd" fill="#70A611"><path d="M2.703 38.904c-1.465-6.461.776-11.967 5.796-14.408 1.734-.844 3.254-1.05 5.149.053 3.89 2.262 8.061 2.279 12.173.387 4.139-1.903 7.646-.685 10.112 3.984-2.969-.832-6.28-1.539-6.979 1.971-.492 2.465.652 5.256 1.084 8.014-8.909-.001-18.131-.001-27.335-.001zM14.596 9.013c1.32.362 2.851.86 4.417 1.175.763.154 1.602.015 2.395-.079 2.319-.274 4.628-.685 6.954-.813.446-.024 1.237.924 1.382 1.538.886 3.727-.901 7.794-4.252 10.016-3.328 2.208-7.565 2.2-10.907-.022-3.313-2.203-5.001-6.301-4.282-10.062.534-2.801 2.663-.983 4.293-1.753zM32.521 40.402c-.788-1.895-1.783-3.972-2.522-6.137-1.178-3.449.51-5.207 4.101-4.564.943.169 1.988-.045 2.957-.232 2.548-.493 4.064.787 3.461 3.307-.66 2.756-1.685 5.425-2.575 8.213-.89-1.063-1.645-2.726-2.502-2.781-.92-.059-1.937 1.394-2.92 2.194zM28.518 7.539c-2.588-.018-5.029 1.514-6.747-1.572-.286-.514-3.024-.528-3.274-.056-1.66 3.136-4.232 1.542-6.909 1.756 1.869-3.249 4.453-4.734 7.687-4.975 3.844-.286 6.914 1.211 9.243 4.847z"/></g></svg>