<svg xmlns="http://www.w3.org/2000/svg" width="541.473" height="298.484"><g stroke="#000" stroke-miterlimit="10"><path d="M451.283 118.245c2.48 1.158 4.551 2.15 6.646 3.086.567.254 1.216.475 1.825.473 2.539-.011 4.285 1.479 5.928 3.101 1.483 1.47 3.18 2.492 5.147 3.179 1.359.474 2.813.983 3.874 1.889.813.689 1.439 2.001 1.512 3.076.199 3.016.18 6.059.021 9.074-.071 1.355-.513 2.758-1.072 4.011-.758 1.702-.988 3.322-.436 5.122.284.922.704 1.537 1.601 1.905 3.255 1.333 6.455 2.808 9.746 4.038 4.271 1.592 7.033 4.581 8.329 8.836.698 2.29.947 4.72 1.328 7.096.176 1.094.322 2.227.248 3.322-.186 2.721-.389 5.45-.792 8.145-.689 4.615-.908 9.2.64 13.679 1.049 3.034.318 5.695-1.31 8.248-.456.715-1.116 1.315-1.479 2.07-.424.887-.675 1.868-.909 2.829-.17.699-.162 1.439-.278 2.152-.411 2.517 1.234 4.161 2.554 5.902 1.953 2.58 4.056 5.047 6.012 7.625 1.923 2.531 4.339 4.473 7.05 6.051 1.685.979 3.481 1.767 5.23 2.638.147.077.308.211.458.204 2.835-.111 5.718.844 8.506-.37.188-.079.41-.081 1.032-.199-.436 1.852-.735 3.527-1.233 5.147-.444 1.453-1.209 2.812-1.623 4.271-.187.652.083 1.462.246 2.177.699 3.049 2.716 5.31 4.571 7.69 2.313 2.974 4.133 6.245 4.858 9.987.504 2.599 1.952 4.704 3.438 6.734 1.721 2.351 2.417 5.021 2.978 7.744.376 1.825.444 3.725.541 5.595.077 1.522-1.821 4.053-3.315 4.313-2.383.415-4.792.878-7.197.918-3.776.062-7.462.591-11.171 1.238-2.629.46-5.263.837-7.989-.308-1.938-.813-4.221-.892-6.369-1.106-1.638-.166-3.313.078-4.955-.073-1.369-.124-2.334.531-3.188 1.333-.897.843-1.892.911-2.978.813-.843-.08-1.691-.14-2.517-.314-.342-.074-.713-.375-.914-.677-.728-1.093-1.411-2.218-2.071-3.355-.998-1.715-.975-3.536-.535-5.411.996-4.266 1.354-8.591 1.294-12.974-.025-1.962.44-3.927.454-5.891.026-3.453.189-6.89-.766-10.33-.648-2.337-1.84-4.157-3.372-5.854-2.746-3.035-4.313-6.642-5.437-10.521-.774-2.68-1.532-5.396-2.698-7.909-.423-.916-1.99-1.79-3.057-1.813-1.819-.039-3.646.673-5.486.951-2.581.395-5.135 1.021-7.597-.796-1.296-.95-2.999-1.354-4.537-1.959-.281-.11-.739-.132-.963.023-1.313.929-2.839 1.591-3.271 3.459-.487 2.099-1.356 4.105-1.86 6.202-.731 3.063-.314 6.1.601 9.089.901 2.95 1.99 5.877 2.56 8.895.418 2.225.423 4.628.041 6.854-.208 1.218-1.552 2.271-2.468 3.327-2.195 2.521-5.054 2.731-8.144 2.383-2.408-.275-4.146-1.893-6.238-2.781-.344-.146-.555-.619-.801-.959-1.793-2.473-3.563-4.962-5.385-7.412-.291-.388-.784-.655-1.229-.892-2.637-1.394-5.366-2.623-7.897-4.178-1.397-.858-2.521-2.195-3.682-3.4-1.242-1.293-2.488-2.604-3.536-4.048-1.862-2.575-4.564-4.071-7.116-5.73-1.939-1.257-2.655-3.182-3.196-5.136-.575-2.063-1.304-4.051-2.938-5.355-1.21-.971-2.816-1.636-4.351-1.972-3.563-.772-7.21-1.148-10.769-1.937-1.357-.301-2.586-1.242-3.839-1.95-3.079-1.734-3.896-4.882-4.592-7.938-.655-2.883-1.069-5.862-1.129-8.813-.02-.937 1.253-2.256 2.259-2.787 3.416-1.8 6.926-3.457 10.502-4.912 2.492-1.014 4.479-2.428 6.074-4.604 1.487-2.03 3.352-3.778 4.869-5.787 1.286-1.704 3.159-2.521 4.776-3.729 2.107-1.575 4.101-3.245 5.774-5.357 1.429-1.802 3.392-3.188 5.181-4.686 1.141-.952 2.309-1.933 3.616-2.594 1.414-.711 2.985-1.136 4.524-1.56 2.936-.808 5.924-.729 8.915-.311 2.773.389 5.518.145 8.217-.538.304-.076.655-.604.699-.959.236-1.808.381-3.627.546-5.309 2.215.355 4.304.639 6.367 1.046 2.028.4 2.618.124 3.132-1.786.745-2.78 1.562-5.545 2.188-8.354.474-2.106.834-4.26.997-6.41.354-4.701.682-9.413.759-14.124.041-2.54-.567-5.087-.657-7.64-.047-1.296.411-2.614.678-4.132z" fill="none"/><path d="M476.73 131.573c-.457-2.542-2.761-3.229-4.787-3.938-2.733-.959-5.009-2.527-6.982-4.51-1.317-1.324-2.898-1.636-4.548-2.01-.816-.188-1.646-.389-2.412-.715-2.029-.865-4.029-1.808-6.047-2.705-.263-.115-.554-.174-.801-.248-1.58 2.647-1.277 5.435-.983 8.219.139 1.299.265 2.604.396 3.943-3.95-.594-7.803-1.139-11.642-1.779-.533-.09-.99-.649-1.479-1-.063-.045-.109-.138-.131-.217-.708-2.698-2.784-3.81-5.177-4.729-2.889-1.111-5.672-2.489-8.523-3.691-1.136-.479-1.264-1.531-1.609-2.453-.227-.604-.558-.737-1.166-.888-1.506-.373-2.964-.939-4.413-1.495-.235-.092-.453-.494-.495-.779-.377-2.575-2.022-4.449-3.543-6.365-1.233-1.55-1.811-3.136-1.926-5.192-.127-2.265-1.111-4.479-1.725-6.718-.412-1.499-.91-2.981-1.185-4.508-.087-.48.346-1.132.684-1.599 1.345-1.855.983-3.85.479-6.235 3.016.748 5.902 1.29 8.67 2.204 2.244.74 4.445 1.75 6.479 2.959 2.361 1.409 4.578 3.079 6.741 4.786 4.622 3.646 6.489 8.888 7.989 14.299.224.813.207 1.69.326 2.532.058.393.049.983.284 1.126.866.521 1.798.971 2.763 1.263.246.075.721-.521 1.055-.843 1.011-.971 2.02-1.945 3-2.947.361-.371.716-.78.948-1.237 1.479-2.908 1.749-6.034 1.471-9.21-.188-2.115-.618-4.208-.83-6.321-.156-1.545-.183-3.107-.188-4.664-.005-1.688-.238-3.462.196-5.042 1.059-3.823 2.379-7.578 3.73-11.313.602-1.663 1.453-3.256 2.336-4.797 1.188-2.068 1.724-4.304 2.126-6.614.446-2.569 1.664-4.835 2.845-7.146 1.29-2.534 2.121-5.243 1.537-8.235-.22-1.126.193-2.364.263-3.56.087-1.503.123-3.011.173-4.521.057-1.646-.125-3.338.194-4.932.618-3.062 1.525-6.063 2.295-9.097.602-2.354.59-2.398 3.049-2.34 5.873.134 11.278 1.892 15.766 5.637 3.433 2.868 6.36 6.335 9.604 9.444 1.091 1.048 2.349 2.059 3.713 2.646 2.787 1.203 5.728 1.823 8.802 1.07.778-.192 1.604-.305 2.402-.291 1.729.03 3.063-.938 4.505-1.64 1.954-.951 3.91-1.899 5.847-2.889 3.235-1.648 6.342-2.122 9.422.471.846.713 1.559 1.337 1.837 2.421.521 2.01 1.354 3.771 3.741 4.132-.365 1.045-.64 1.933-.985 2.789-.527 1.305-.354 2.271.551 3.527 2.268 3.142 3.03 6.697 1.531 10.468-1.17 2.942-2.446 5.85-3.586 8.809-.421 1.092-.736 2.272-.826 3.436-.14 1.816-.063 3.651-.044 5.479.029 2.56-.41 5.032-1.836 7.178-2.778 4.181-4.371 8.787-5.154 13.691-.45 2.813-.628 5.667-1.072 8.48-.714 4.506-3.359 7.479-7.606 9.033-.705.257-1.504.286-2.269.345-2.558.196-5.151.175-7.67.608-1.244.214-2.6 1.021-3.451 1.97-1.14 1.27-1.933 2.885-2.705 4.436-1 2.012-1.776 4.13-2.748 6.155-1.521 3.184-4.236 4.471-7.627 4.767-3.131.271-6.247.702-9.579 1.09z" fill="none"/><path d="M414.628 167.388c-1.646 1.238-3.148 2.416-4.703 3.527-1.981 1.418-3.685 3.075-5.261 4.959-1.479 1.769-3.258 3.455-5.237 4.588-2.81 1.606-4.728 3.963-6.712 6.343-1.587 1.899-3.064 3.92-4.854 5.612-1.041.986-2.566 1.483-3.917 2.105-3.393 1.563-6.82 3.049-10.205 4.629-.597.275-1.073.832-1.568 1.301-.983.937-1.832 2.063-2.934 2.82-1.92 1.315-4.17 1.267-6.396 1.038-.334-.033-.668-.138-1.003-.146-1.79-.053-3.124-1.079-3.895-2.729-1.614-3.462-3.009-7.087-5.071-10.271-2.994-4.619-7.229-7.868-12.783-9.063-1.152-.25-2.335-.828-3.446-.716-2.03.209-4.003.983-6.033 1.223-2.258.264-4.574.372-6.828.158-.771-.073-1.433-1.327-2.172-2.071 1.081-1.978 2.562-3.283 4.684-4.184 1.784-.758 3.493-2.034 4.772-3.489.632-.717.483-2.409.23-3.563-1.084-4.916-2.421-9.775-3.476-14.698-.329-1.528-.052-3.188-.052-4.899 1.283.184 2.414.535 3.519.461 1.595-.108 3.213-.381 4.745-.837 4.594-1.37 9.167-2.878 13.319-5.29 1.776-1.033 3.255-2.646 4.711-4.148 1.606-1.659 3.446-2.906 5.51-3.898.695-.336 1.187-.215 1.46.402.93 2.097 3.135 2.332 4.802 3.337.197.117.798-.186 1.042-.448.808-.875 1.532-1.822 2.395-2.869 1.859 1.035 3.736 2.078 5.613 3.125.186.103.373.203.537.331.699.544 2.063.507 1.736 1.951-.209.93-.296 1.922-.695 2.766-.58 1.219-1.408 2.317-2.098 3.487-.313.524-.438.886.268 1.458 2.152 1.745 4.547 2.997 7.134 3.854 1.105.367 2.354.478 3.524.439 2.007-.061 3.696.395 4.942 2.083 1.133 1.537 2.498 2.28 4.542 1.66.686-.209 1.73.261 2.431.709 2.107 1.354 4.098 2.888 6.195 4.254.394.257 1.336.313 1.577.052 1.479-1.607 2.672-1.396 4.167.077 1.664 1.636 3.586 3.01 5.484 4.57z" fill="none"/><path d="M331.98 94.615c.276 1.949.461 3.811.833 5.632.188.912.591 1.847 1.132 2.604.748 1.046 1.299 2.035 1.198 3.393-.203 2.666.541 5.131 1.83 7.456.604 1.096.16 3.541-.808 4.283-1.646 1.269-3.239 2.688-5.075 3.609-1.529.771-3.358.986-5.08 1.324-1.082.211-2.215.172-3.313.302-.306.035-.658.21-.866.437-1.721 1.854-3.497 3.666-5.063 5.643-.555.698-.523 1.836-.87 2.731-.184.467-.512.981-.923 1.234-1.966 1.21-4.064 1.732-6.442 1.688-2.146-.043-4.148-.261-6.133-1.103-2.115-.895-3.858-3.472-4.239-5.711-.488-2.861-1.088-5.771-2.167-8.448-1.142-2.843-3.4-5.039-6.06-6.563-3.16-1.81-6.442-3.435-9.761-4.943-2.568-1.171-5.326-1.923-7.899-3.077-2.081-.934-4.196-1.954-5.479-4.396 2.779-1.681 5.53-3.529 8.448-5.058 3.277-1.72 6.812-2.89 10.531-3.104 3.954-.229 7.927-.382 11.878-.238 4.563.17 8.928 1.427 13.136 3.227 3.343 1.432 6.805 2.096 10.467 1.421 2.466-.453 4.979-.646 7.438-1.105 1.097-.209 2.125-.788 3.287-1.238z" fill="none"/><path d="M354.159 127.529c2.363-.668 4.651-1.275 6.909-1.969 1.06-.323 1.956-.24 2.8.502.316.276.683.531 1.067.69 1.366.563 2.173 1.396 2.351 3.02.227 2.033.821 4.027 1.303 6.255l-2.488 2.988c-1.828-.78-3.774-1.432-4.729-3.448-.372-.789-.809-.786-1.538-.469-2.457 1.076-4.647 2.488-6.483 4.479-3.497 3.795-7.815 6.202-12.791 7.532-2.282.607-4.517 1.418-6.752 2.18-2.006.684-3.936.113-5.825-.179-.34-1.609-.551-3.169-1.011-4.65-.436-1.403-1.348-2.514-2.6-3.393-1.101-.772-1.99-1.835-3.051-2.677-1.023-.813-2.139-1.518-3.225-2.255-.806-.544-1.594-2.859-1.524-3.817.174-2.404 1.957-3.791 3.271-5.474.475-.607 1.173-1.049 1.62-1.673.849-1.178 2.084-1.352 3.354-1.518 1.98-.259 4.01-.341 5.921-.857 1.067-.287 1.944-1.298 2.899-1.991.172-.123.294-.333.478-.433 2.036-1.095 3.857-2.364 3.97-4.913 1.619.746 3.036 1.491 4.525 2.058 1.336.509 2.73.907 4.132 1.183.881.172 1.83.103 2.734 0 2.055-.232 3.726 1.125 3.808 3.188.019.392-.041.788.024 1.165.263 1.494.565 2.979.851 4.476z" fill="none"/><path d="M343.996 80.45c2.468 1.146 4.112 3.092 5.2 5.519.688 1.531 1.245 3.122 1.848 4.69.669 1.741 1.604 3.236 3.346 4.137 1.125.584 2.271 1.203 3.23 2.016 1.079.911 1.79.438 2.629-.257 1.135-.938 2.312-1.829 3.396-2.681 1.188 1.305 2.245 2.542 3.393 3.689.524.523.618.963.25 1.568-.244.4-.442.828-.654 1.246-1.106 2.204-1.065 2.163.738 3.792 2.173 1.96 4.271 3.998 6.479 6.073-2.572 2.164-4.71 4.727-8.205 5.151-.448.055-.916-.041-1.357.032-1.995.347-4.025.584-5.964 1.145-1.343.385-2.559 1.21-3.819 1.871-.623.327-1.166.89-1.939.281-1.319-1.032-2.766-1.014-4.319-.574-.454.131-1.041-.188-1.561-.325-.69-.188-1.364-.521-2.063-.579-2.359-.195-4.455-1.332-5.996-2.813-1.3-1.246-1.831-3.379-2.469-5.2-.3-.854-.144-1.913-.029-2.86.163-1.372-.188-2.598-1.117-3.515-1.683-1.658-1.598-3.825-2.05-5.878-.469-2.115.372-2.984 2.194-4.101 4.082-2.495 7.192-6.002 8.303-10.899.113-.523.355-1.022.536-1.528z" fill="none"/><path d="M446.269 160.042c-3.303-.056-6.483-.38-9.448-1.911-2.188-1.132-4.406-2.216-6.659-3.213-1.104-.49-1.969-.948-1.423-2.354.792-2.038-.482-3.367-1.66-4.693-2.42-2.721-4.876-5.407-7.317-8.109l-.984-1.055c2.25 0 4.254-.047 6.252.021.857.028 1.285-.259 1.66-1.026.687-1.41 1.509-2.756 2.312-4.104.152-.255.456-.5.739-.58 1.669-.467 3.343-.916 5.031-1.303.887-.201 1.455-.611 1.859-1.472.924-1.953 1.17-1.98 3.11-1.643 3.174.559 6.354 1.073 9.546 1.521.934.13 1.398.388 1.32 1.408-.282 3.664-.439 7.34-.807 10.997-.316 3.207-.708 6.422-1.332 9.581-.523 2.642-1.427 5.21-2.199 7.935z" fill="none"/><path d="M380.79 90.927c-.668 1.879-1.407 3.705-1.938 5.589-.188.667.068 1.504.266 2.222.328 1.189.411 2.3-.38 3.354-1.213 1.613-1.173 3.163.272 4.638.191.198.278.504.442.815-1.431.652-2.804 1.331-4.224 1.886-.355.14-1.01.025-1.288-.229-1.427-1.318-2.759-2.742-4.158-4.094-.982-.951-2.023-1.848-3.108-2.829.547-1.125 1.156-2.197 1.576-3.338.156-.438.041-1.163-.243-1.532-1.044-1.353-2.216-2.604-3.327-3.903-.505-.589-.936-.9-1.688-.217-1.034.941-2.203 1.734-3.307 2.603-.519.406-.918.703-1.646.158-1.182-.887-2.553-1.516-3.778-2.348-1.779-1.209-2.521-3.102-3.098-5.068-1.027-3.519-2.694-6.592-5.99-8.515-.646-.378-1.188-.763-1.041-1.67.286-1.76.675-3.524.717-5.294.057-2.331 1.63-3.447 3.191-4.635 1.729-1.31 3.485-2.574 5.352-3.947.097.196.396.519.38.816-.146 2.421 1.391 4.088 2.709 5.755 1.911 2.412 3.982 4.711 6.125 6.927 2.016 2.082 3.459 4.52 4.868 7.002.712 1.256 1.256 2.67 2.208 3.707.613.668 1.808.95 2.786 1.106 2.645.419 5.316.678 8.322 1.041z" fill="none"/><path d="M386.053 114.519c-.146-.885-.39-1.606-.341-2.312.05-.767.209-1.618.604-2.254 1.636-2.63 4.218-4.556 5.454-7.523 1.178-2.826 2.088-5.709 2.788-8.688.848-3.622 1.947-7.188 2.882-10.793.317-1.229.438-2.506.688-3.751.072-.354.214-.775.47-.986 1.287-1.065 3.861-1.205 5.192-.136 1.418 1.141 2.905 2.315 3.938 3.775.871 1.229 1.31 3.032.404 4.433-1.404 2.173-1.423 4.316-.683 6.631.575 1.806 1.03 3.654 1.688 5.43 1.223 3.292.138 6.063-1.731 8.724-1.944 2.767-4.533 4.846-7.235 6.783-2.119 1.518-4.681 1.839-7.168 2.377-2.349.507-4.129-.972-6.192-1.409-.28-.064-.542-.213-.758-.301z" fill="none"/><path d="M407.248 160.212c.724-2.125 1.513-4.332 2.211-6.57.173-.554.12-1.201.065-1.8-.154-1.678.223-3.19 1.055-4.661 1.074-1.893.21-3.687-.541-5.421-.26-.603-.807-1.081-1.25-1.651 1.926-1.282 3.88-2.224 6.242-1.427l.127.014c2.208-.547 3.409.961 4.637 2.326 2.626 2.931 5.198 5.908 7.82 8.842 1.031 1.151.427 2.434.26 3.604-.127.881-.066 1.274.768 1.654 2.517 1.146 4.979 2.407 7.483 3.568.916.426 1.073.944.854 1.931-.289 1.277-.228 2.631-.431 3.934-.054.345-.489.828-.817.895-2.986.572-5.938.572-8.96-.095-2.519-.556-5.097-.092-7.556.771-.197.071-.433.061-.613.158-2.387 1.279-4.064.096-5.77-1.484-1.647-1.535-3.476-2.873-5.584-4.588z" fill="none"/><path d="M404.04 130.57c1.219-2.104 2.376-4.063 3.483-6.045.344-.615.696-.678 1.34-.467 2.173.705 4.365 1.354 6.563 1.979.356.104.854.1 1.162-.078 1.451-.838 2.641-1.871 2.822-3.736.183-1.815 1.953-2.355 3.048-3.434.099-.097.481.04.702.139 3.691 1.611 7.4 3.19 11.063 4.871 2.469 1.133 3.156 5.16 1.104 6.879-.772.648-2.021.919-3.083 1-2.854.224-4.631 1.619-5.565 4.302-.479 1.368-1.474 1.902-3.063 1.809-2.217-.135-4.458.173-6.688.185-1.625.01-3.255-.141-4.877-.266-.259-.021-.529-.246-.736-.439-1.635-1.523-3.244-3.073-4.883-4.598-.816-.76-1.671-1.473-2.392-2.101z" fill="none"/><path d="M391.086 144.796l-2.607 8.65c-5.021.127-9.552-1.146-13.419-4.668.547-.844 1.085-1.687 1.632-2.519.942-1.437 1.798-2.884 1.476-4.731-.053-.308.155-.838.408-.988 2.791-1.667 4.09-4.267 4.354-7.341.183-2.089 1.221-3.413 2.979-4.144 2.18-.898 3.271-2.392 3.1-4.718-.102-1.383.477-1.867 1.778-1.745.223.021.46-.127.811-.231-.322 2.063-.854 4.018-.855 5.969-.002 1.279.631 2.626 1.23 3.814.757 1.489.648 2.604-.341 4.023-1.29 1.855-2.195 3.989-3.186 6.042-.129.269.116.912.388 1.134.684.559 1.482.972 2.252 1.453z" fill="none"/><path d="M371.786 113.025c.354 1.561.688 2.785.894 4.026.133.813.57.909 1.258.903 2.555-.027 5.106-.01 7.742-.01l.874 3.148c-2.364 1.738-4.762 3.481-7.135 5.256-.958.719-1.854.936-2.801.008-.67-.66-1.379-.674-2.208-.209-.657.364-1.391.667-2.127.803-.54.097-1.174-.023-1.697-.225-.501-.188-.954-.563-1.357-.934-2.398-2.186-4.851-.597-7.283-.13-.286.056-.558.195-.838.29-2.56.873-2.542.87-2.846-1.84-.123-1.096-.395-2.178-.46-3.271-.025-.402.223-.955.529-1.232 2.653-2.414 5.912-2.977 9.372-3.287 2.864-.257 5.847-.654 8.083-3.296z" fill="none"/><path d="M407.923 123.049c.114-1.059.192-1.993.322-2.92.117-.854-.438-1.084-1.072-1.336-2.041-.817-4.152-.473-6.185-.162-1.075.164-1.672-.04-2.347-.736-.508-.522-1.129-.933-1.812-1.479 6.026-2.514 10.188-6.521 13.196-12.105 1.638 2.898 4.332 4.925 5.162 8.203.396 1.555 2.122 2.699 3.854 2.857.946.086 1.945-.022 2.444 1.309.402 1.078.275 1.812-.596 2.292-1.584.879-2.095 2.331-2.465 3.936-.323 1.405-2.438 2.732-3.75 2.333-2.213-.686-4.413-1.429-6.751-2.192z" fill="none"/><path d="M383.028 121.855c1.426 1.602 2.921 2.779 4.986 1.097.625 2 .201 3.908-1.397 4.577-3.412 1.43-4.281 4.206-4.837 7.454-.378 2.212-1.989 3.771-3.888 4.928-.243.146-.754.033-1.052-.127-2.354-1.271-4.718-2.535-7.004-3.921-.438-.27-.646-1.039-.806-1.623-.467-1.704-.87-3.425-1.268-5.148-.168-.74.166-1.229.892-1.478.681-.233 1.336-.644 2.026-.704.609-.059 1.419.07 1.848.448 1.031.903 1.899.677 2.846-.019 2.229-1.628 4.458-3.249 6.692-4.869.3-.215.62-.397.962-.615z" fill="none"/><path d="M408.046 140.707c1.467 1.097 2.182 2.905 2.257 4.896.027.76-.642 1.545-.983 2.316-.257.58-.789 1.205-.711 1.737.517 3.528-1.373 6.632-1.735 10.011-.096.895-1.635 1.644-2.547 2.414-.084.07-.455-.139-.651-.278-2.261-1.578-4.51-3.172-6.643-4.675.645-4.555 1.271-9.045 1.895-13.444 2.876-.942 5.909-1.93 9.118-2.977z" fill="none"/><path d="M400.196 132.505c-2.492 2.771-2.788 5.964-2.604 9.416.147 2.864-.063 5.76-.29 8.626-.147 1.854-.612 3.677-.948 5.513-.044.238-.1.534-.26.688-.622.586-3.481.49-4.099-.117-.946-.943-2.375-1.771-2.684-2.896-.294-1.07.587-2.463.954-3.714.43-1.463.768-2.958 1.322-4.371.418-1.061.201-1.775-.798-2.096-1.612-.516-1.592-1.549-.952-2.722.914-1.674 1.866-3.335 2.943-4.901.641-.932 1.166-1.628.469-2.836-.687-1.188-1.037-2.573-1.582-3.986 1.597 0 3.06-.03 4.521.021.338.015.729.223.984.458 1.055.961 2.059 1.977 3.024 2.917z" fill="none"/><path d="M386.023 108.341c-.317 1-1.224 2.335-.971 3.392.554 2.303-.507 3.386-2.116 4.574-1.063.785-2.1.97-3.325.928-1.779-.061-3.563.021-5.341-.063-.363-.017-.923-.421-1.021-.753-.291-1.014-.454-2.072-.557-3.122-.038-.411.098-1.075.38-1.237 2.335-1.361 4.69-2.699 7.12-3.886.551-.268 1.407.142 2.126.156 1.316.035 2.631.011 3.705.011z" fill="none"/><path d="M407.507 119.472c.021 2.348-.352 4.381-1.408 6.222-.191.332-.939.631-1.313.526-3.751-1.04-7.507-2.062-11.008-3.852-1.155-.593-1.572-1.396-1.634-2.569-.037-.677-.229-1.354-.189-2.021.021-.301.391-.755.682-.835.935-.252 1.902-.4 2.865-.502.278-.028.646.183.872.391.701.64 1.302 1.4 2.048 1.98.459.354 1.114.661 1.672.647 1.182-.034 2.354-.423 3.53-.424 1.258.002 2.516.271 3.883.437z" fill="none"/><path d="M403.232 130.954l7.58 7.061c-4.102 1.979-7.825 4.359-12.345 4.73-.664-6.279.126-7.682 4.765-11.791z" fill="none"/><path d="M400.735 132.31c-2.134-3.881-5.297-4.939-9.275-4.008.17-1.145.31-2.016.428-2.888.117-.885.217-1.771.313-2.544 4.291 1.447 8.576 2.894 13.059 4.407-1.443 1.603-2.865 3.186-4.525 5.033z" fill="none"/><path d="M385.689 122.969c-.5-.386-1.025-.817-1.579-1.216-1.329-.949-1.23-2.528-1.703-3.853-.032-.101.223-.324.371-.457.287-.256.628-.454.884-.732 1.345-1.465 2.854-1.657 4.606-.755.86.443 1.81.717 2.839 1.113.176 1.262.411 2.635.519 4.019.021.244-.464.688-.78.769-1.677.414-3.372.737-5.157 1.112z" fill="none"/><path fill="#70A611" d="M379.314 107.248c.278.29.549.59.854.848l.07.063c.551-.228 1.382.158 2.08.175 1.24.033 2.479.014 3.516.011.643-.26 1.315-.387 2.004-.438 1.438-1.722 3.037-3.323 3.935-5.475 1.178-2.826 2.088-5.709 2.788-8.688.848-3.622 1.947-7.188 2.882-10.793.317-1.229.438-2.506.688-3.751l.046-.188-.005-.211c.021-.182.039-.363.039-.551l-.006-.191-.027-.092-.056-.034c-.346-.21-.562-.562-.619-.938-.266-.116-.528-.278-.804-.484-.363-.269-1.054-.545-1.344-.38-1.206.694-2.463 1.41-3.442 2.381-3.625 3.585-7.146 7.274-10.729 10.902-.254.666-.32 1.405-.444 2.104-.047.262-.194.479-.396.64-.535 1.451-1.08 2.888-1.491 4.359-.187.667.067 1.502.267 2.22.328 1.189.411 2.3-.38 3.354-1.213 1.613-1.173 3.163.271 4.638.131.135.214.318.303.519z"/><path d="M381.127 7h.261c.929.433 1.823.951 2.785 1.282 1.521.521 2.784 1.255 3.622 2.722.363.634 1.054 1.187 1.722 1.521 1.608.813 3.266 1.563 4.956 2.188 3.827 1.411 6.579 3.606 7.521 7.921.54 2.466 1.807 4.833 3.046 7.075 1.369 2.474 3.79 3.771 6.485 4.325 7.357 1.517 14.766 1.353 22.174.374 3.413-.449 6.467-1.688 9.077-4.034 2.6-2.342 5.342-4.526 7.998-6.804 2.173-1.865 4.358-3.726 7.18-4.503 1.49-.412 3.048-.582 4.897-.922-.458 1.926-.836 3.382-1.147 4.851-.64 3.03-1.538 6.042-1.799 9.108-.368 4.337-.235 8.716-.368 13.072-.021.809-.115 1.682-.452 2.396-1.977 4.224-3.383 8.612-4.721 13.089-1.587 5.301-4.104 10.326-6.259 15.455-1.563 3.71-2.116 7.57-1.62 11.529.601 4.808 1.182 9.604.861 14.46-.111 1.688-.535 3.227-1.895 4.38-1.054.896-2.084 1.815-3.113 2.739-.86.771-2.319.344-2.616-.766-.733-2.741-1.492-5.478-2.229-8.218-.893-3.316-2.795-5.974-5.213-8.354-5.146-5.063-11.402-8.103-18.326-9.649-3.421-.769-6.585-1.604-8.836-4.485-.154-.194-.405-.323-.621-.465-1.575-1.021-3.194-1.27-5.052-.681-.779.248-1.824-.023-2.646-.333-.777-.294-1.404-.569-2.143.017-1.11.884-2.355 1.628-3.36 2.615-3.321 3.277-6.577 6.629-9.837 9.973-.62.641-1.246.91-2.178.764-1.789-.285-3.596-.509-5.404-.596-2.211-.104-3.813-.881-4.77-3.039-2.056-4.657-5.465-8.332-8.844-12.055-1.986-2.191-3.66-4.685-5.308-7.157-1.118-1.683-.917-3.05.495-4.45 2.35-2.322 3.507-5.208 3.559-8.375.063-3.818 1.353-7.088 3.161-10.357 1.125-2.025 1.636-4.409 2.297-6.669.688-2.355 1.118-4.788 1.866-7.12.761-2.375 2.044-4.493 4.15-5.962 2.697-1.883 4.584-4.383 5.964-7.351 1.496-3.197 3.116-6.342 4.68-9.511z" fill="none"/></g><path stroke="#70A611" stroke-miterlimit="10" d="M5.61 144.435s105.026 113.767 247 44" fill="none"/><g fill="#70A611"><path d="M53.611 144.098l.491-.483c.924.481 1.976.915 3.154 1.297-.766.634-1.358 1.158-1.783 1.571l-2.229 2.214c1.373.845 2.618 1.136 3.734.875 1.117-.263 1.967-.865 2.55-1.813.406-.661.483-1.347.231-2.06-.254-.712-.875-1.373-1.869-1.984-1.405-.864-2.95-1.354-4.635-1.469-1.686-.114-3.213.146-4.586.787-1.373.64-2.391 1.5-3.056 2.58-.182.296-.309.595-.383.896-.074.304-.099.606-.071.912.019.183.117.479.303.895.203.469.313.788.322.962.012.173-.033.341-.134.504-.101.164-.248.269-.442.313-.193.045-.377.019-.548-.088-.441-.271-.691-.871-.75-1.795-.058-.925.205-1.861.789-2.81.804-1.308 1.972-2.33 3.504-3.074 1.533-.744 3.241-1.046 5.124-.906 1.883.143 3.684.738 5.398 1.794 1.396.859 2.289 1.788 2.676 2.786s.336 1.896-.15 2.688c-.465.754-1.131 1.289-2 1.604-.867.317-1.901.337-3.102.063.616.526 1.042 1.045 1.278 1.548.234.504.339 1.019.31 1.546-.029.525-.202 1.047-.517 1.559-.518.838-1.25 1.479-2.204 1.927-.954.444-2.061.618-3.323.521-1.262-.097-2.413-.466-3.453-1.104-.303-.188-.932-.615-1.887-1.288-.459-.314-.949-.634-1.469-.952-.792-.487-1.533-.857-2.225-1.11l.569-.532c.844.454 1.544.616 2.101.484.559-.132 1.351-.692 2.375-1.683l5.888-5.709c.248-.245.417-.442.509-.593.072-.116.087-.251.046-.398-.042-.15-.137-.271-.284-.361-.058-.044-.143-.08-.252-.114zm-.981 5.183l-2.032 1.979c-1.05 1.026-1.912 1.78-2.595 2.264-.402.286-.817.484-1.244.599.594.601 1.144 1.056 1.646 1.366 1.358.835 2.643 1.047 3.854.636 1.213-.412 2.136-1.135 2.771-2.169.315-.513.457-1.033.424-1.563-.031-.527-.215-.996-.547-1.403-.332-.41-1.091-.981-2.277-1.709zM69.727 155.365l1.72.912-3.374 3.62c-1.968 2.097-3.042 3.313-3.222 3.651-.081.153-.107.289-.077.408s.089.202.178.249c.138.072.33.098.579.075.364-.045 1.115-.245 2.253-.603l.162.658c-2.511.824-4.149 1.034-4.914.628-.258-.137-.425-.352-.501-.645s-.02-.621.173-.983c.222-.419.606-.933 1.152-1.54-1.151.441-2.419.692-3.802.754-.918.039-1.636-.075-2.149-.351-.282-.149-.454-.359-.517-.63s.013-.608.227-1.011c.167-.314.382-.637.646-.959.375-.452 1.181-1.331 2.42-2.639 1.568-1.655 2.457-2.68 2.661-3.064.12-.229.101-.382-.062-.468-.146-.076-.382-.106-.71-.092-.329.019-.947.151-1.854.402l-.308-.704c1.591-.395 2.751-.592 3.479-.593s1.266.09 1.61.271c.193.104.313.258.358.463.046.204-.012.456-.168.756-.295.557-1.312 1.77-3.045 3.64-1.555 1.686-2.403 2.666-2.549 2.94-.091.169-.112.343-.067.521s.131.302.26.37c.45.239 1.287.206 2.511-.1 1.226-.308 2.217-.865 2.979-1.681l3.951-4.255zM76.22 170.639l-1.899-.843 3.909-4.937c-.76-.048-1.471.04-2.132.266-.661.225-1.582.654-2.761 1.287-1.433.771-2.467 1.242-3.104 1.412s-1.211.143-1.719-.082c-.399-.178-.694-.468-.884-.871-.19-.403-.153-1.315.107-2.734l.727.055c-.155.958-.201 1.521-.14 1.693.063.173.179.297.347.37.5.225 1.447-.049 2.848-.813 1.725-.939 2.92-1.443 3.587-1.514.666-.066 1.66.066 2.981.403-.228-.479-.328-1.213-.31-2.201.021-.968-.043-1.607-.19-1.925-.148-.314-.354-.53-.609-.646-.133-.061-.389-.089-.768-.087-.273.01-.498-.024-.673-.104-.558-.247-.725-.621-.503-1.121.148-.333.435-.538.856-.614s.826-.028 1.208.142c.575.256.981.677 1.227 1.263.243.587.286 1.607.128 3.063-.071.726-.019 1.456.162 2.194l2.746-3.553 1.835.814-2.949 3.791c.547-.129 1.301-.437 2.267-.926 1.881-.96 3.241-1.503 4.08-1.629.838-.127 1.545-.063 2.12.192.697.311.927.741.683 1.291-.237.533-.668.66-1.294.383l-.32-.157-.363-.189c-.602-.269-1.218-.354-1.849-.26s-1.473.382-2.524.86c-1.107.495-1.892.796-2.348.901.899 1.038 1.439 1.921 1.621 2.647.182.729.234 2.354.159 4.872-.054 1.881.079 3.244.396 4.088.317.846.838 1.428 1.563 1.747.366.162.729.226 1.09.187.36-.04.587-.163.68-.372.053-.116.08-.293.086-.53.006-.257.04-.461.106-.609.082-.185.229-.318.443-.408s.425-.088.634.005c.216.096.374.271.471.521.098.253.072.546-.076.879-.275.625-.798 1.04-1.561 1.244-.764.205-1.573.117-2.432-.263-.965-.429-1.722-1.092-2.27-1.988-.548-.896-.874-1.956-.979-3.179-.104-1.224-.084-2.896.06-5.015.092-1.275.074-2.116-.053-2.521-.128-.405-.366-.841-.716-1.305l-3.701 4.826zM104.107 178.258c-2.324 1.256-3.901 1.749-4.732 1.479-.243-.079-.435-.264-.575-.548-.142-.286-.149-.62-.025-1.003.144-.442.417-.987.818-1.637l1.45-2.383-3.616-1.175-2.848 4.681-1.938-.63c.051-.099.256-.42.615-.966.263-.395.782-1.214 1.562-2.458l2.668-4.271c.14-.226.231-.405.277-.546.084-.261.036-.42-.146-.479-.382-.124-1.201.127-2.459.754l-.428-.629c2.374-1.106 4.024-1.509 4.954-1.207.477.155.613.55.406 1.182-.196.607-.93 1.891-2.194 3.846l3.622 1.178 2.799-4.323 1.846.602-2.697 4.141c-1.574 2.401-2.422 3.784-2.541 4.146-.109.34-.041.55.212.631.313.102 1.213-.233 2.698-1.008l.272.623zM116.992 171.851l.921.037-1.854 3.096c-.741 1.229-1.513 2.67-2.313 4.315-.438.896-.69 1.479-.762 1.752-.071.273.004.438.225.495.143.037.392.002.747-.104.632-.188 1.263-.456 1.892-.813l.291.625c-1.243.659-2.031 1.049-2.363 1.17-.665.243-1.277.393-1.837.444-.367.037-.709.015-1.027-.067-.229-.06-.388-.155-.476-.292-.088-.136-.105-.305-.053-.508.033-.133.115-.304.246-.516l.993-1.664c-.993.714-2.1 1.262-3.316 1.644-.749.24-1.395.29-1.933.151-.512-.132-.856-.414-1.037-.848-.246-.579-.268-1.265-.063-2.051.241-.935.759-1.911 1.553-2.931.794-1.021 1.731-1.889 2.813-2.607 1.08-.72 2.141-1.181 3.181-1.383.801-.149 1.763-.082 2.883.207.283.073.565.165.848.274l.441-.426zm-2.163 1.601c-.452-.22-.841-.372-1.167-.456-.794-.205-1.543-.165-2.248.119-.704.285-1.456.929-2.256 1.932-.8 1.004-1.345 2.07-1.637 3.2-.155.6-.165 1.059-.03 1.375.134.317.365.521.692.604.607.155 1.347-.005 2.213-.481.867-.479 1.623-1.292 2.268-2.443l2.165-3.85zM128.577 179.36c.514-.271 1.178-.77 1.995-1.497 1.54-1.392 2.695-2.264 3.466-2.614.771-.354 1.485-.479 2.145-.374.765.121 1.101.479 1.007 1.072-.091.576-.483.81-1.176.7l-.375-.073-.441-.1c-.531-.084-1.081-.016-1.649.203-.568.221-1.347.729-2.328 1.521-.943.772-1.62 1.268-2.032 1.479 1.131.77 1.877 1.48 2.237 2.14.36.655.827 2.212 1.398 4.664.415 1.755.875 3.016 1.381 3.781.506.77 1.191 1.222 2.057 1.356.369.058.724.021 1.063-.109.339-.131.526-.305.561-.521.018-.107-.002-.307-.06-.591-.051-.259-.067-.448-.047-.574.031-.198.139-.368.323-.51.184-.144.388-.195.612-.159.263.041.464.177.606.407.144.229.188.512.137.846-.105.675-.503 1.21-1.188 1.604-.687.396-1.492.521-2.418.371-1.353-.213-2.491-.926-3.42-2.139-.93-1.213-1.701-3.506-2.313-6.878-.169-.969-.36-1.688-.579-2.155-.216-.468-.604-.916-1.163-1.347l-2.284 5.619-2.041-.323 1.521-3.482c1.426-3.3 2.175-5.175 2.246-5.625.033-.207-.05-.324-.248-.355-.378-.062-1.176.377-2.396 1.311l-.345-.539c1.058-.839 2.058-1.406 2.999-1.706.943-.299 1.608-.417 1.996-.354.36.057.52.225.475.504-.017.099-.123.396-.32.892l-1.402 3.555zM146.832 176.112l.916-.107-1.338 3.353c-.534 1.333-1.063 2.877-1.592 4.631-.289.953-.446 1.568-.472 1.852-.026.282.074.435.301.453.146.014.386-.061.721-.222.594-.284 1.172-.652 1.735-1.104l.387.57c-1.121.85-1.836 1.36-2.145 1.533-.618.346-1.199.59-1.743.73-.356.097-.698.128-1.025.1-.236-.021-.408-.095-.516-.212-.108-.12-.153-.284-.133-.493.012-.136.063-.318.16-.548l.715-1.804c-.867.863-1.871 1.581-3.015 2.153-.7.356-1.327.51-1.882.459-.525-.049-.913-.271-1.16-.67-.335-.534-.466-1.205-.392-2.013.088-.962.442-2.01 1.063-3.145.62-1.133 1.406-2.141 2.357-3.021.951-.883 1.923-1.507 2.918-1.874.768-.277 1.727-.362 2.879-.257.291.024.583.07.88.136l.381-.5zm-1.88 1.926c-.479-.145-.89-.232-1.225-.264-.817-.074-1.55.084-2.2.478-.65.396-1.289 1.149-1.917 2.27-.629 1.118-.997 2.259-1.104 3.421-.059.617.007 1.069.188 1.36.185.292.443.453.779.483.626.058 1.329-.219 2.106-.829.779-.607 1.396-1.535 1.85-2.772l1.523-4.147zM149.323 179.81l-.519-.562c.854-.972 1.698-1.685 2.53-2.137.831-.453 1.55-.672 2.149-.656.229.006.406.067.535.185s.19.285.186.506c-.007.265-.043.533-.107.812-.066.277-.271.93-.605 1.961 1.429-1.356 2.404-2.195 2.923-2.51.871-.534 1.662-.792 2.371-.773.465.014.854.24 1.16.688.307.443.449 1.108.426 1.994-.057 2.205-.797 4.28-2.223 6.231s-2.973 2.905-4.639 2.862c-.656-.018-1.309-.212-1.953-.584l-1.284 4.479c-.08.271-.122.494-.126.667-.009.339.111.582.364.734.386.237 1.206.445 2.459.624l-.195.679c-1.464-.154-2.615-.243-3.453-.267-.866-.022-1.987.008-3.367.091l.195-.679c.694-.057 1.203-.233 1.524-.535s.59-.847.802-1.634l2.741-10.313c.515-1.919.772-2.986.778-3.207.007-.235-.104-.356-.333-.362-.398-.01-1.179.559-2.339 1.706zm2.604 6.522c.698.738 1.428 1.116 2.184 1.136 1.092.028 2.07-.799 2.938-2.479.869-1.685 1.322-3.335 1.365-4.957.014-.521-.094-.916-.316-1.191-.227-.272-.533-.417-.926-.427-.436-.012-.932.19-1.486.604-.863.644-1.525 1.285-1.988 1.932-.331.466-.65 1.278-.963 2.438l-.808 2.944zM162.03 179.76l-.439-.521c.852-.952 1.67-1.664 2.457-2.137.787-.476 1.416-.726 1.883-.75.19-.012.339.021.438.1.1.076.154.188.162.333.011.183-.043.536-.159 1.063-.167.776-.278 1.392-.336 1.842 2.054-2.344 3.657-3.548 4.812-3.61.3-.018.529.053.693.208.163.155.256.41.274.765.021.385-.078 1.041-.3 1.977.978-1.143 1.837-1.958 2.575-2.451.739-.493 1.323-.752 1.753-.775.383-.021.685.071.904.277.223.207.348.538.371.993.018.271-.013.599-.082.977-.068.378-.339 1.534-.806 3.469-.587 2.396-.868 3.823-.843 4.278.018.312.151.457.406.442.174-.011.338-.073.496-.192.518-.412 1.039-.916 1.572-1.512l.479.466c-.183.166-.522.505-1.023 1.017-.69.695-1.169 1.135-1.434 1.313-.512.339-.947.519-1.313.539-.271.015-.521-.106-.746-.362-.224-.257-.35-.622-.376-1.096-.022-.438.012-.952.104-1.546.095-.595.395-1.935.897-4.017.378-1.563.56-2.51.539-2.837-.017-.31-.162-.457-.437-.439-.229.013-.524.144-.896.393-.756.519-1.379 1.131-1.868 1.844-.338.493-.613 1.264-.83 2.308-.481 2.282-.836 4.141-1.057 5.577l-1.938.106 1.565-8.454c.111-.606.165-.959.16-1.05-.008-.146-.052-.255-.128-.328-.077-.071-.185-.104-.319-.099-.246.014-.615.227-1.112.638-.862.696-1.477 1.358-1.837 1.985-.36.628-.647 1.567-.859 2.821l-.791 4.672-1.962.108 1.179-6.598c.351-1.909.521-2.946.511-3.109-.012-.21-.1-.31-.264-.301-.346.018-1.041.576-2.075 1.673zM187.997 173.884l.868-.312-.55 3.563c-.221 1.42-.391 3.043-.51 4.871-.067.994-.082 1.631-.044 1.91.038.28.17.405.396.374.146-.02.361-.146.652-.378.515-.41.995-.899 1.44-1.466l.507.469c-.901 1.08-1.483 1.738-1.746 1.979-.523.476-1.034.844-1.532 1.104-.326.173-.651.281-.979.325-.233.032-.419.002-.551-.09-.132-.095-.212-.243-.24-.451-.019-.135-.008-.325.033-.569l.291-1.916c-.649 1.035-1.468 1.961-2.451 2.775-.603.505-1.18.795-1.729.87-.524.068-.951-.062-1.281-.394-.447-.443-.725-1.068-.834-1.874-.131-.957-.021-2.058.33-3.301s.89-2.402 1.618-3.477c.728-1.073 1.535-1.901 2.422-2.481.686-.442 1.602-.742 2.748-.897.289-.039.585-.062.888-.064l.254-.57zm-1.397 2.303c-.501-.032-.919-.026-1.253.019-.813.111-1.492.431-2.036.96s-.997 1.41-1.358 2.641c-.361 1.231-.464 2.427-.307 3.581.083.614.247 1.043.492 1.285.244.243.533.342.867.296.623-.085 1.244-.512 1.866-1.28.622-.771 1.017-1.812 1.179-3.119l.55-4.383zM191.436 176.709l-.519-.448c.692-1.07 1.393-1.9 2.097-2.491.704-.592 1.286-.936 1.741-1.032.188-.041.338-.031.448.027.11.062.183.161.212.306.039.179.041.537.01 1.075-.045.793-.061 1.416-.047 1.869 1.664-2.635 3.063-4.071 4.189-4.314.293-.063.533-.03.719.098.188.128.315.365.393.713.08.374.084 1.04.012 1.997.788-1.277 1.509-2.22 2.163-2.82.653-.604 1.188-.949 1.608-1.039.375-.081.688-.036.938.134.251.169.425.477.521.923.059.267.08.593.07.979-.011.386-.096 1.567-.256 3.552-.207 2.46-.263 3.912-.167 4.355.063.306.223.43.473.374.171-.036.322-.125.462-.267.443-.487.884-1.067 1.315-1.738l.545.387c-.154.191-.438.579-.854 1.162-.573.795-.979 1.304-1.211 1.521-.45.414-.854.66-1.213.736-.268.058-.53-.022-.793-.241-.262-.22-.44-.562-.541-1.023-.094-.428-.139-.94-.138-1.544.001-.602.088-1.97.263-4.104.131-1.604.16-2.565.092-2.889-.064-.303-.23-.425-.498-.365-.225.048-.498.224-.823.524-.667.629-1.188 1.333-1.56 2.112-.258.54-.41 1.342-.462 2.406-.122 2.328-.182 4.221-.177 5.675l-1.896.408.231-8.597c.017-.619.015-.973-.005-1.062-.03-.145-.09-.244-.178-.307-.087-.061-.197-.074-.331-.048-.24.054-.573.319-1 .805-.744.82-1.246 1.569-1.506 2.247-.259.677-.396 1.648-.41 2.921l-.056 4.737-1.921.413.139-6.698c.048-1.94.055-2.991.021-3.151-.044-.205-.146-.29-.307-.256-.345.071-.943.732-1.793 1.978zM216.161 166.941l.813-.438-.011 3.607c-.004 1.437.07 3.065.229 4.893.083.992.164 1.624.244 1.896.079.271.229.375.447.311.14-.041.336-.198.588-.472.445-.483.85-1.038 1.206-1.666l.568.389c-.729 1.202-1.206 1.941-1.43 2.216-.446.549-.896.99-1.35 1.322-.296.221-.604.377-.917.469-.229.067-.413.064-.56-.007-.145-.071-.246-.208-.306-.409-.038-.131-.057-.318-.053-.566v-1.938c-.487 1.122-1.156 2.159-2.008 3.112-.521.59-1.048.963-1.58 1.12-.508.147-.948.084-1.324-.194-.51-.373-.877-.949-1.106-1.728-.271-.929-.328-2.031-.168-3.313.16-1.281.521-2.509 1.077-3.68s1.23-2.11 2.021-2.817c.609-.54 1.472-.974 2.582-1.3.278-.082.568-.148.867-.198l.171-.609zm-1.037 2.483c-.5.043-.912.111-1.233.206-.787.231-1.41.65-1.869 1.255-.459.605-.774 1.544-.946 2.814-.173 1.271-.095 2.468.234 3.587.175.595.398.993.679 1.196.28.202.579.258.903.161.604-.178 1.152-.691 1.652-1.549.5-.854.73-1.938.694-3.261l-.114-4.409z"/></g><polyline stroke="#70A611" stroke-miterlimit="10" points="240.61,183.685 270.86,182.185 249.11,197.685" fill="none"/></svg>