<svg xmlns="http://www.w3.org/2000/svg" width="42.875" height="42.75"><g fill-rule="evenodd" clip-rule="evenodd" fill="#8260B8"><path d="M37.842 40.205h-32.066c-1.1-6.611 1.082-11.676 6.85-13.509.772-.245 1.889-.072 2.619.324 4.375 2.376 8.658 2.363 13.01-.044.658-.364 1.627-.536 2.345-.359 4.116 1.019 7.104 4.826 7.236 9.073.044 1.448.006 2.897.006 4.515zm-8.005-2.022c1.883.022 3.454-1.512 3.463-3.382.009-1.831-1.618-3.451-3.446-3.432-1.788.019-3.331 1.544-3.38 3.34-.05 1.861 1.489 3.451 3.363 3.474zM14.63 10.857l.814 1.238c3.188-.935 6.376-1.326 9.628-.66l.586.12c1.845.466 1.844.467 2.987-.884 3.005 3.429 2.767 8.772-.537 12.061-3.36 3.342-8.828 3.512-12.374.383-3.578-3.156-4.099-8.409-1.104-12.258zM13.582 5.219c4.479-4.459 11.586-4.46 16.253.008-.84 1.521-1.66 3.105-2.6 4.616-.17.274-.866.423-1.248.331-2.924-.704-5.835-.625-8.741.029-.779.176-1.293.113-1.649-.74-.593-1.421-1.315-2.787-2.015-4.244zm8.382-2.232l-.394.002-.404 1.848-1.886.403.04.383 1.911.267.28 1.964.474-.02.278-1.934 1.93-.313-.018-.413-1.913-.317-.298-1.87zM29.656 37.491l-.36-2.148-2.035-.263-.056-.503 2.108-.414.307-2.027.492-.006.348 2.007 2.058.475-.039.457-1.997.259-.377 2.166-.449-.003z"/></g></svg>