<svg xmlns="http://www.w3.org/2000/svg" width="100" height="100" viewBox="0 0 28 28" preserveAspectRatio="none"
><g fill="#fff"><polygon points="3.333,26.007 8.593,21.401 8.593,11.978 3.333,16.584"/><polygon points="9.65,21.401 14.364,25.915 14.364,16.491 9.65,11.978"/><polygon points="15.194,25.883 20.023,21.439 20.023,12.016 15.194,16.459"/><path d="M17.802 9.321l.029-.04h-.006c.3-.518.472-1.118.472-1.76 0-1.945-1.576-3.521-3.52-3.521s-3.521 1.576-3.521 3.521c0 .854.305 1.639.813 2.248l2.713 3.913 2.75-3.97c.098-.122.188-.253.27-.391zm-3.092-.04c-.972 0-1.76-.788-1.76-1.76 0-.973.788-1.762 1.76-1.762.973 0 1.761.789 1.761 1.762 0 .972-.788 1.76-1.761 1.76z"/><polygon points="20.96,11.924 20.96,21.347 26.22,26.007 26.22,16.584"/></g></svg>